<?xml version="1.0" encoding="UTF-8"?>
<svg id="Layer_1" xmlns="http://www.w3.org/2000/svg" version="1.1" viewBox="0 0 1271.78 307.12">
  <!-- Generator: Adobe Illustrator 29.6.0, SVG Export Plug-In . SVG Version: 2.1.1 Build 207)  -->
  <defs>
    <style>
      .st0 {
        fill: #fff;
      }
    </style>
  </defs>
  <path class="st0" d="M108,36h-12v-12h-12v-12h-12V0h-24v12h-12v12h-12v12h-12v12H0v236h12v12h12v12h24v-24h24v24h24v-12h12v-12h12V48h-12v-12ZM24,60h12v-12h12v-12h24v12h12v12h12v36H24v-36ZM96,168v104h-12v-12h-12v-72h-24v72h-12v12h-12V120h72v48Z"/>
  <polygon class="st0" points="288 132 276 132 276 120 264 120 264 48 240 48 240 120 228 120 228 132 216 132 216 0 192 0 192 144 204 144 204 156 216 156 216 164 216 168 240 168 240 284 216 284 216 308 288 308 288 284 264 284 264 168 288 168 288 164 288 156 300 156 300 144 312 144 312 0 288 0 288 132"/>
  <path class="st0" d="M492,36h-12v-12h-12v-12h-12V0h-24v12h-12v12h-12v12h-12v12h-12v260h24v-96h12v12h12v12h12v12h12v12h12v24h12v24h24V48h-12v-12ZM408,60h12v-12h12v-12h24v12h12v12h12v36h-72v-36ZM480,168v68h-12v-12h-12v-12h-12v-12h-12v-12h-12v-24h-12v-44h72v48Z"/>
  <path class="st0" d="M683.99,12h-12V0h-96v308h24v-96h12v12h12v12h12v12h12v12h12v24h12v24h24v-168h-12v-8h-12v-24h-12v-12h12v-12h12v-12h12V24h-12v-12ZM671.99,168v68h-12v-12h-12v-12h-12v-12h-12v-12h-12v-24h-12v-68h36v24h12v24h12v24h12ZM671.99,60h-12v12h-60V24h60v12h12v24Z"/>
  <path class="st0" d="M875.99,12h-12V0h-96v168h48v116h-24v24h72v-24h-24v-116h24v-12h12v-12h12V24h-12v-12ZM863.99,132h-12v8h-60V24h60v12h12v96Z"/>
  <polygon class="st0" points="1055.99 236 1043.99 236 1043.99 224 1031.99 224 1031.99 212 1019.99 212 1019.99 200 1007.99 200 1007.99 188 995.99 188 995.99 164 983.99 164 983.99 140 959.99 140 959.99 308 983.99 308 983.99 212 995.99 212 995.99 224 1007.99 224 1007.99 236 1019.99 236 1019.99 248 1031.99 248 1031.99 260 1043.99 260 1043.99 284 1055.99 284 1055.99 308 1079.99 308 1079.99 140 1055.99 140 1055.99 236"/>
  <polygon class="st0" points="1271.99 188 1271.99 164 1259.99 164 1259.99 152 1247.99 152 1247.99 140 1175.99 140 1175.99 152 1163.99 152 1163.99 164 1151.99 164 1151.99 284 1163.99 284 1163.99 296 1175.99 296 1175.99 308 1247.99 308 1247.99 296 1259.99 296 1259.99 284 1271.99 284 1271.99 224 1223.99 224 1223.99 248 1247.99 248 1247.99 272 1235.99 272 1235.99 284 1187.99 284 1187.99 272 1175.99 272 1175.99 176 1187.99 176 1187.99 164 1235.99 164 1235.99 176 1247.99 176 1247.99 188 1271.99 188"/>
</svg>