<?xml version="1.0" encoding="UTF-8"?>
<svg id="Layer_1" xmlns="http://www.w3.org/2000/svg" version="1.1" viewBox="0 0 283.46 283.46">
  <!-- Generator: Adobe Illustrator 29.6.0, SVG Export Plug-In . SVG Version: 2.1.1 Build 207)  -->
  <defs>
    <style>
      .st0 {
        fill: none;
        stroke: #181819;
        stroke-miterlimit: 10;
        stroke-width: 8px;
      }

      .st1 {
        fill: #181819;
      }
    </style>
  </defs>
  <circle class="st0" cx="141.73" cy="138.38" r="35.28"/>
  <path class="st1" d="M196.36,146.23c11.02,0,22.04,0,33.05,0,5.79,0,5.8-9,0-9-11.02,0-22.04,0-33.05,0-5.79,0-5.8,9,0,9h0Z"/>
  <path class="st1" d="M54.05,146.23c11.02,0,22.04,0,33.05,0,5.79,0,5.8-9,0-9-11.02,0-22.04,0-33.05,0-5.79,0-5.8,9,0,9h0Z"/>
  <path class="st1" d="M137.23,196.36c0,11.02,0,22.04,0,33.05,0,5.79,9,5.8,9,0,0-11.02,0-22.04,0-33.05,0-5.79-9-5.8-9,0h0Z"/>
  <path class="st1" d="M137.23,54.05c0,11.02,0,22.04,0,33.05,0,5.79,9,5.8,9,0,0-11.02,0-22.04,0-33.05,0-5.79-9-5.8-9,0h0Z"/>
  <path class="st1" d="M99.92,177.18c-7.79,7.79-15.58,15.58-23.37,23.37-4.1,4.1,2.26,10.47,6.36,6.36,7.79-7.79,15.58-15.58,23.37-23.37,4.1-4.1-2.26-10.47-6.36-6.36h0Z"/>
  <path class="st1" d="M200.55,76.55c-7.79,7.79-15.58,15.58-23.37,23.37-4.1,4.1,2.26,10.47,6.36,6.36,7.79-7.79,15.58-15.58,23.37-23.37,4.1-4.1-2.26-10.47-6.36-6.36h0Z"/>
  <path class="st1" d="M106.28,99.92c-7.79-7.79-15.58-15.58-23.37-23.37-4.1-4.1-10.47,2.26-6.36,6.36,7.79,7.79,15.58,15.58,23.37,23.37,4.1,4.1,10.47-2.26,6.36-6.36h0Z"/>
  <path class="st1" d="M206.92,200.55c-7.79-7.79-15.58-15.58-23.37-23.37-4.1-4.1-10.47,2.26-6.36,6.36,7.79,7.79,15.58,15.58,23.37,23.37,4.1,4.1,10.47-2.26,6.36-6.36h0Z"/>
</svg>