<?xml version="1.0" encoding="UTF-8"?>
<svg id="Layer_2" xmlns="http://www.w3.org/2000/svg" version="1.1" viewBox="0 0 837 332.5">
  <!-- Generator: Adobe Illustrator 29.6.0, SVG Export Plug-In . SVG Version: 2.1.1 Build 207)  -->
  <defs>
    <style>
      .st0 {
        fill: #fff;
      }
    </style>
  </defs>
  <g>
    <path class="st0" d="M104.21,107.82c10.35-9.9,15.6-23.25,15.6-39.68s-4.85-30.28-14.4-39.01c-9.47-8.65-23.65-13.04-42.16-13.04H25.02v106.59h38.16c16.92,0,30.73-5,41.03-14.86ZM61.51,40.8c9.14,0,16.23,2.44,21.08,7.25,4.91,4.87,7.3,11.53,7.3,20.36,0,9.43-2.45,16.58-7.5,21.85-5.01,5.23-11.83,7.77-20.88,7.77h-7.82v-57.24h7.82Z"/>
    <polygon class="st0" points="197.88 98.04 160.31 98.04 160.31 81.43 193.16 81.43 193.16 56.72 160.31 56.72 160.31 40.8 195.59 40.8 195.59 16.09 131.64 16.09 131.64 122.68 197.88 122.68 197.88 98.04"/>
    <polygon class="st0" points="273.41 16.09 252.49 84.96 231.58 16.09 200.69 16.09 237.11 122.68 266.69 122.68 303.63 16.09 273.41 16.09"/>
    <polygon class="st0" points="338.14 81.43 370.99 81.43 370.99 56.72 338.14 56.72 338.14 40.8 373.42 40.8 373.42 16.09 309.47 16.09 309.47 122.68 375.71 122.68 375.71 98.04 338.14 98.04 338.14 81.43"/>
    <polygon class="st0" points="415.66 16.09 386.99 16.09 386.99 122.68 452.75 122.68 452.75 98.04 415.66 98.04 415.66 16.09"/>
    <path class="st0" d="M503.57,14.42c-15.98,0-29.03,5.28-38.77,15.69-9.68,10.35-14.59,24-14.59,40.59s4.85,28.8,14.42,38.72c9.6,9.95,22.14,14.99,37.28,14.99s28.38-5.19,38.1-15.43c9.67-10.19,14.57-23.75,14.57-40.29s-4.74-29.27-14.08-39.21c-9.4-9.99-21.82-15.06-36.93-15.06ZM486.45,47.85c4.11-5.16,9.48-7.67,16.43-7.67s11.96,2.42,15.81,7.39c4.01,5.18,6.04,12.71,6.04,22.37s-2.07,16.48-6.15,21.46c-3.97,4.84-9.28,7.19-16.25,7.19s-11.85-2.44-15.93-7.46c-4.2-5.17-6.33-12.44-6.33-21.61s2.15-16.34,6.39-21.68Z"/>
    <path class="st0" d="M634.82,25.04c-6.85-5.94-17.05-8.94-30.31-8.94h-38.09v106.59h28.67v-32.92h7.4c12.77,0,23.18-3.47,30.96-10.32,7.91-6.96,11.92-16.19,11.92-27.42,0-11.84-3.55-20.92-10.55-26.99ZM595.08,39.9h5.6c5.24,0,9.09,1.08,11.44,3.2,2.28,2.06,3.39,5.25,3.39,9.76s-1.14,7.89-3.47,10.02c-2.4,2.18-6.25,3.29-11.43,3.29h-5.53v-26.27Z"/>
    <polygon class="st0" points="684 81.43 716.85 81.43 716.85 56.72 684 56.72 684 40.8 719.28 40.8 719.28 16.09 655.33 16.09 655.33 122.68 721.57 122.68 721.57 98.04 684 98.04 684 81.43"/>
    <path class="st0" d="M803.24,88.81c-1.88-3.41-4.19-6.67-6.87-9.7-1.02-1.15-2.08-2.18-3.18-3.07,4.41-2.35,8.12-5.36,11.06-9.01,4.36-5.41,6.57-11.91,6.57-19.32,0-10.49-3.49-18.52-10.38-23.88-6.62-5.14-16.39-7.75-29.02-7.75h-38.57v106.59h28.67v-37.29h2.73c1.98.19,3.7,1,5.26,2.46,1.89,1.77,3.85,4.53,5.85,8.21l14.47,26.62h32.77l-19.36-33.87ZM761.52,39.48h7.06c4.42,0,7.66.88,9.62,2.63,1.87,1.66,2.78,4.2,2.78,7.76s-1.13,6.26-3.44,8.56c-2.33,2.31-5.39,3.43-9.38,3.43h-6.64v-22.38Z"/>
  </g>
  <g>
    <path class="st0" d="M329.06,199.53h-7.82v57.24h7.82c9.04,0,15.87-2.54,20.88-7.77,5.05-5.28,7.5-12.42,7.5-21.85,0-8.83-2.39-15.49-7.3-20.36-4.85-4.81-11.94-7.25-21.08-7.25Z"/>
    <path class="st0" d="M229.04,198.91c-6.95,0-12.32,2.51-16.43,7.67-4.24,5.33-6.39,12.63-6.39,21.68s2.13,16.45,6.33,21.61c4.08,5.02,9.29,7.46,15.93,7.46,6.97,0,12.29-2.35,16.25-7.19,4.08-4.98,6.15-12.2,6.15-21.46s-2.03-17.2-6.04-22.37c-3.85-4.97-9.02-7.39-15.81-7.39Z"/>
    <path class="st0" d="M477.06,141.05H29.3c-6.6,0-12,5.4-12,12v148c0,6.6,5.4,12,12,12h447.76c6.6,0,12-5.4,12-12v-148c0-6.6-5.4-12-12-12ZM164.67,281.42h-28.46v-59.21l-20.9,59.21h-22.44l-21.27-59.01v59.01h-26.58v-106.59h37.58l21.85,62c.27.67.52,1.35.76,2.03.24-.72.48-1.42.71-2.1l21.87-61.93h36.88v106.59ZM266.16,267.72c-9.72,10.24-22.54,15.43-38.1,15.43s-27.68-5.04-37.28-14.99c-9.57-9.91-14.42-22.94-14.42-38.72,0-16.59,4.91-30.24,14.59-40.59,9.74-10.41,22.79-15.69,38.77-15.69,15.11,0,27.53,5.07,36.93,15.06,9.34,9.93,14.08,23.12,14.08,39.21s-4.9,30.11-14.57,40.29ZM371.76,266.55c-10.3,9.86-24.11,14.86-41.03,14.86h-38.16v-106.59h38.23c18.5,0,32.69,4.39,42.16,13.04,9.56,8.73,14.4,21.86,14.4,39.01s-5.25,29.78-15.6,39.68ZM465.44,281.42h-66.24v-106.59h63.95v24.71h-35.28v15.92h32.85v24.71h-32.85v16.61h37.57v24.64Z"/>
  </g>
</svg>