<?xml version="1.0" encoding="UTF-8"?>
<svg id="Layer_4" xmlns="http://www.w3.org/2000/svg" version="1.1" viewBox="0 0 325.06 61.22">
  <!-- Generator: Adobe Illustrator 29.6.0, SVG Export Plug-In . SVG Version: 2.1.1 Build 207)  -->
  <defs>
    <style>
      .st0, .st1 {
        fill: #fff;
      }

      .st1, .st2 {
        fill-rule: evenodd;
      }

      .st3, .st2 {
        fill: #191717;
      }
    </style>
  </defs>
  <rect id="pill" class="st0" x="0" y="0" width="325.06" height="61.22" rx="30.61" ry="30.61"/>
  <path id="square" class="st3" d="M192.08,15.4c0-1.36,1.13-2.47,2.53-2.47h29.14c1.4,0,2.53,1.1,2.53,2.47v29.48c0,1.36-1.13,2.47-2.53,2.47h-29.14c-1.4,0-2.53-1.1-2.53-2.47V15.4Z"/>
  <path id="L" class="st2" d="M96.36,41.76h14.27v-4.68h-9.11v-17.87h-5.16v22.56h0Z"/>
  <path id="i" class="st2" d="M117.85,41.76v-15.54h-5.16v15.54h5.16ZM115.27,24.1c1.8,0,2.92-1.19,2.92-2.69-.03-1.52-1.12-2.68-2.89-2.68s-2.92,1.16-2.92,2.68,1.12,2.69,2.85,2.69h.04Z"/>
  <path id="n" class="st2" d="M120.25,41.76h5.16v-8.68c0-.46.03-.93.17-1.26.37-.93,1.22-1.89,2.65-1.89,1.87,0,2.62,1.43,2.62,3.51v8.31h5.16v-8.91c0-4.77-2.55-6.99-5.95-6.99-2.79,0-4.01,1.56-4.69,2.62h.03v-2.25h-5.16c.07,1.46,0,15.54,0,15.54h0Z"/>
  <path id="k" class="st2" d="M143.3,19.2h-5.16v22.56h5.16v-5.04l1.29-1.62,4.04,6.66h6.35l-6.8-9.65,5.95-6.56h-6.22s-4.25,5.87-4.62,6.57v-12.92h.01Z"/>
  <path id="e" class="st2" d="M168.8,35.28c.07-.4.17-1.16.17-2.03,0-4.02-2.04-8.09-7.41-8.09-5.74,0-8.39,4.54-8.39,8.66,0,5.09,3.23,8.28,8.87,8.28,2.24,0,4.31-.33,6.01-1.03l-.68-3.41c-1.39.46-2.82.69-4.59.69-2.41,0-4.52-.99-4.69-3.1l10.7.03h.01ZM158.07,31.79c.14-1.33,1.02-3.28,3.23-3.28,2.34,0,2.89,2.09,2.89,3.28h-6.12Z"/>
  <path id="d" class="st2" d="M181.72,19.2v7.81h-.07c-.75-1.09-2.31-1.82-4.38-1.82-3.98,0-7.48,3.18-7.44,8.62,0,5.04,3.16,8.32,7.1,8.32,2.14,0,4.18-.93,5.2-2.72h.1l.2,2.35h4.59c-.07-1.09-.14-2.98-.14-4.84v-17.72h-5.16,0ZM181.72,34.57c0,.4-.03.8-.1,1.13-.31,1.43-1.53,2.42-3.02,2.42-2.14,0-3.53-1.72-3.53-4.44,0-2.55,1.19-4.61,3.57-4.61,1.6,0,2.72,1.09,3.02,2.45.07.3.07.63.07.93v2.12h-.01Z"/>
  <path id="i1" class="st1" d="M202.44,41.74v-15.54h-5.16v15.54h5.16ZM199.86,24.08c1.8,0,2.92-1.19,2.92-2.68-.03-1.52-1.12-2.68-2.89-2.68s-2.92,1.16-2.92,2.68,1.12,2.68,2.85,2.68h.04Z"/>
  <path id="n1" class="st1" d="M205.3,41.74h5.16v-8.68c0-.46.03-.93.17-1.26.37-.93,1.22-1.89,2.65-1.89,1.87,0,2.62,1.42,2.62,3.51v8.31h5.16v-8.91c0-4.77-2.55-6.99-5.95-6.99-2.79,0-4.01,1.56-4.69,2.62h.03v-2.25h-5.16c.07,1.46,0,15.54,0,15.54h.01Z"/>
</svg>