<?xml version="1.0" encoding="UTF-8"?>
<svg id="Layer_2" xmlns="http://www.w3.org/2000/svg" version="1.1" viewBox="0 0 465.88 415.91">
  <!-- Generator: Adobe Illustrator 29.6.0, SVG Export Plug-In . SVG Version: 2.1.1 Build 207)  -->
  <defs>
    <style>
      .st0, .st1 {
        fill: #fff;
      }

      .st1 {
        opacity: .5;
      }
    </style>
  </defs>
  <path class="st0" d="M450.46,350v27.69H18.64v-27.69h431.82M452.46,348H16.64v31.69h435.82v-31.69h0Z"/>
  <rect class="st0" x="22.26" y="354.21" width="272.94" height="19.27"/>
  <circle class="st0" cx="22.26" cy="394.03" r="4.66"/>
  <circle class="st0" cx="39.13" cy="394.03" r="4.66"/>
  <circle class="st0" cx="56" cy="394.03" r="4.66"/>
  <rect class="st1" x="34.47" y="354.21" width="410.8" height="19.27"/>
  <g>
    <path class="st0" d="M41.24,31.62h22.79v63.45h35.57v20.73h-58.36V31.62Z"/>
    <path class="st0" d="M115.85,31.62h61.08v17.97h-38.24v13.38h35.47v17.17h-35.47v16.6h39.34v19.06h-62.19V31.62Z"/>
    <path class="st0" d="M189,31.62h23.83l16.6,60.58,16.39-60.58h23.13l-27.39,84.18h-24.7l-27.86-84.18Z"/>
    <path class="st0" d="M286.28,31.62h61.08v17.97h-38.24v13.38h35.47v17.17h-35.47v16.6h39.34v19.06h-62.19V31.62Z"/>
    <path class="st0" d="M367.68,31.62h22.79v63.45h35.57v20.73h-58.36V31.62Z"/>
  </g>
  <g>
    <path class="st0" d="M145.56,176.3c0-13.87,3.98-24.66,11.95-32.39,7.97-7.72,19.06-11.59,33.29-11.59s25.82,3.79,33.7,11.38c7.89,7.59,11.83,18.22,11.83,31.89,0,9.93-1.72,18.07-5.17,24.42-3.45,6.35-8.43,11.3-14.94,14.83-6.51,3.53-14.63,5.3-24.35,5.3s-18.06-1.53-24.53-4.58c-6.47-3.05-11.72-7.88-15.75-14.48-4.02-6.6-6.04-14.87-6.04-24.8ZM172.63,176.42c0,8.57,1.64,14.73,4.93,18.48,3.29,3.75,7.76,5.62,13.42,5.62s10.32-1.83,13.51-5.5c3.19-3.67,4.78-10.25,4.78-19.76,0-8-1.66-13.84-4.99-17.53-3.33-3.69-7.84-5.53-13.54-5.53s-9.84,1.87-13.15,5.62c-3.31,3.75-4.96,9.95-4.96,18.6Z"/>
    <path class="st0" d="M254.29,133.78h60.56v18.25h-35.96v14.83h30.71v17.15h-30.71v34.7h-24.6v-84.93Z"/>
  </g>
  <g>
    <path class="st0" d="M16.64,236.17h39.27c7.74,0,13.99,1.03,18.76,3.1,4.76,2.07,8.7,5.03,11.81,8.9,3.11,3.87,5.37,8.36,6.77,13.49,1.4,5.13,2.1,10.57,2.1,16.31,0,9-1.04,15.97-3.12,20.93-2.08,4.96-4.97,9.11-8.66,12.46-3.7,3.35-7.66,5.58-11.9,6.69-5.8,1.53-11.05,2.3-15.75,2.3H16.64v-84.18ZM43.07,255.24v45.99h6.48c5.52,0,9.45-.6,11.79-1.81,2.33-1.21,4.16-3.31,5.48-6.32,1.32-3,1.98-7.88,1.98-14.61,0-8.92-1.48-15.02-4.43-18.32-2.96-3.29-7.86-4.94-14.7-4.94h-6.59Z"/>
    <path class="st0" d="M111.44,236.2h61.08v17.97h-38.24v13.38h35.47v17.17h-35.47v16.6h39.34v19.06h-62.19v-84.18Z"/>
    <path class="st0" d="M183.82,236.2h69.28v20.79h-23.24v63.39h-22.79v-63.39h-23.24v-20.79Z"/>
    <path class="st0" d="M304.62,306.48h-25.88l-3.6,13.9h-23.27l27.72-84.18h24.86l27.72,84.18h-23.87l-3.69-13.9ZM299.9,288.28l-8.14-30.26-8.06,30.26h16.2Z"/>
    <path class="st0" d="M349.93,236.2h22.84v84.18h-22.84v-84.18Z"/>
    <path class="st0" d="M394.1,236.2h22.79v63.45h35.57v20.73h-58.36v-84.18Z"/>
  </g>
</svg>