<?xml version="1.0" encoding="UTF-8"?>
<svg xmlns="http://www.w3.org/2000/svg" version="1.1" viewBox="0 0 325.06 61.22">
  <!-- Generator: Adobe Illustrator 29.6.0, SVG Export Plug-In . SVG Version: 2.1.1 Build 207)  -->
  <defs>
    <style>
      .st0 {
        fill: #fff;
      }
    </style>
  </defs>
  <g id="Layer_4">
    <rect id="pill" class="st0" x="0" y="0" width="325.06" height="61.22" rx="30.61" ry="30.61"/>
  </g>
  <g id="Layer_5">
    <path d="M234.49,29.86c.18.19.65.37.93.64,1.61,1.52,2.6,3.2,2.77,5.45.21,2.74.29,6.08-3.07,6.66-3.43-.22-7.23.3-10.62,0-3.76-.32-3.69-4.68-3.17-7.51.43-2.36,1.82-4.04,3.68-5.44-2.07-2.57-1.97-6.64.61-8.8,5.35-4.49,13.07,1.77,9.18,8.14-.19.31-.71.44-.32.86ZM232.11,28.17c.06-.09.26-.16.36-.3,2.34-3.29-.79-7.18-4.36-5.57-1.94.88-2.54,3.36-1.47,5.17.34.57,1.05.93,1.26,1.58.72,2.18-1.53,2.55-2.63,3.71-1.39,1.46-1.84,4.23-1.57,6.17.12.82.44,1.07,1.25,1.14,2.35.21,7.08.21,9.43,0,.75-.07,1.18-.19,1.26-.98.21-1.97.04-4.49-1.27-6.06-.84-1.01-2.57-1.58-2.91-2.62s.09-1.45.65-2.25Z"/>
    <g>
      <path d="M89.27,33.78v5.49h-3.52v-14.77h5.82c1.3,0,2.29.14,2.98.42s1.3.77,1.85,1.49c.54.71.81,1.59.81,2.63,0,.73-.14,1.44-.43,2.13-.29.69-.7,1.24-1.22,1.63-.53.4-1.04.66-1.53.79s-1.27.19-2.32.19h-2.44ZM89.15,31.1h2.25c.86,0,1.46-.2,1.81-.6.35-.4.52-.85.52-1.36,0-.6-.19-1.07-.58-1.43-.39-.35-.97-.53-1.76-.53h-2.24v3.92Z"/>
      <path d="M106.9,39.49c-1.99,0-3.53-.75-4.62-2.24-1.09-1.49-1.63-3.3-1.63-5.42s.55-3.96,1.65-5.4,2.67-2.16,4.71-2.16,3.62.77,4.67,2.31,1.57,3.3,1.57,5.29c0,2.14-.54,3.95-1.62,5.42-1.08,1.47-2.66,2.21-4.74,2.21ZM106.99,27.09c-1.81,0-2.72,1.59-2.72,4.78s.91,4.79,2.72,4.79,2.64-1.59,2.64-4.78-.88-4.79-2.64-4.79Z"/>
      <path d="M121.22,33.41v5.85h-3.48v-14.77h6.49c1.2,0,2.16.14,2.88.42.73.28,1.33.79,1.8,1.53.48.74.71,1.57.71,2.48,0,1.77-.85,3.05-2.56,3.82l2.73,6.53h-3.82l-2.27-5.85h-2.48ZM121.22,27.12v3.77h2.12c.69,0,1.2-.05,1.51-.15.31-.1.59-.31.84-.65s.37-.72.37-1.15-.12-.78-.37-1.1-.51-.52-.8-.6-.83-.11-1.62-.11h-2.05Z"/>
      <path d="M143.88,24.49v2.92h-3.66v11.85h-3.51v-11.85h-3.68v-2.92h10.84Z"/>
      <path d="M158.09,27.42h-6.92v3.31h5.47v2.76h-5.47v5.78h-3.59v-14.77h10.51v2.92Z"/>
      <path d="M167.43,39.49c-1.99,0-3.53-.75-4.62-2.24-1.09-1.49-1.63-3.3-1.63-5.42s.55-3.96,1.65-5.4,2.67-2.16,4.71-2.16,3.62.77,4.67,2.31,1.57,3.3,1.57,5.29c0,2.14-.54,3.95-1.62,5.42-1.08,1.47-2.66,2.21-4.74,2.21ZM167.53,27.09c-1.81,0-2.72,1.59-2.72,4.78s.91,4.79,2.72,4.79,2.64-1.59,2.64-4.78-.88-4.79-2.64-4.79Z"/>
      <path d="M181.77,36.34h5.88v2.92h-9.38v-14.77h3.51v11.85Z"/>
      <path d="M195.1,24.49v14.77h-3.45v-14.77h3.45Z"/>
      <path d="M205.82,39.49c-1.99,0-3.53-.75-4.62-2.24-1.09-1.49-1.63-3.3-1.63-5.42s.55-3.96,1.65-5.4,2.67-2.16,4.71-2.16,3.62.77,4.67,2.31,1.57,3.3,1.57,5.29c0,2.14-.54,3.95-1.62,5.42-1.08,1.47-2.66,2.21-4.74,2.21ZM205.92,27.09c-1.81,0-2.72,1.59-2.72,4.78s.91,4.79,2.72,4.79,2.64-1.59,2.64-4.78-.88-4.79-2.64-4.79Z"/>
    </g>
  </g>
</svg>