<?xml version="1.0" encoding="UTF-8"?>
<svg id="Layer_1" xmlns="http://www.w3.org/2000/svg" version="1.1" viewBox="0 0 325.06 61.22">
  <!-- Generator: Adobe Illustrator 29.6.0, SVG Export Plug-In . SVG Version: 2.1.1 Build 207)  -->
  <defs>
    <style>
      .st0 {
        fill: none;
        stroke: #000;
        stroke-miterlimit: 10;
      }

      .st1 {
        fill: #fff;
      }
    </style>
  </defs>
  <g id="Layer_4">
    <path id="pill" class="st1" d="M30.61,0h263.84C311.36,0,325.06,13.7,325.06,30.61h0c0,16.91-13.7,30.61-30.61,30.61H30.61C13.7,61.22,0,47.52,0,30.61h0C0,13.7,13.7,0,30.61,0Z"/>
  </g>
  <g>
    <path d="M89.69,33.44v5.82h-3.46v-14.69h6.46c1.19,0,2.15.14,2.87.41.72.28,1.32.78,1.79,1.52.47.74.71,1.56.71,2.46,0,1.76-.85,3.03-2.55,3.8l2.71,6.49h-3.8l-2.26-5.82h-2.46ZM89.69,27.19v3.74h2.11c.69,0,1.19-.05,1.5-.15s.59-.31.83-.65c.24-.33.37-.72.37-1.15s-.12-.77-.37-1.1c-.24-.32-.51-.52-.8-.6-.29-.08-.82-.11-1.61-.11h-2.03Z"/>
    <path d="M113.4,27.37h-6.99v3.01h5.5v2.77h-5.5v3.21h6.99v2.91h-10.49v-14.69h10.49v2.8Z"/>
    <path d="M127.81,27.8l-2.93.98c-.39-1.16-1.23-1.74-2.5-1.74-1.36,0-2.04.44-2.04,1.32,0,.35.13.65.38.89.25.24.83.46,1.72.64,1.5.3,2.59.61,3.29.92s1.28.8,1.76,1.49c.48.68.71,1.45.71,2.3,0,1.33-.51,2.47-1.53,3.44-1.02.97-2.54,1.45-4.54,1.45-1.5,0-2.79-.34-3.84-1.03-1.06-.68-1.75-1.7-2.09-3.05l3.18-.72c.36,1.37,1.35,2.06,2.98,2.06.79,0,1.37-.15,1.76-.46.39-.31.58-.67.58-1.09s-.18-.76-.53-1c-.35-.24-1.03-.46-2.03-.67-1.87-.39-3.2-.92-4-1.59-.8-.67-1.19-1.65-1.19-2.94s.47-2.41,1.42-3.3c.95-.9,2.24-1.34,3.86-1.34,2.88,0,4.73,1.15,5.56,3.45Z"/>
    <path d="M143.15,27.37h-6.99v3.01h5.5v2.77h-5.5v3.21h6.99v2.91h-10.49v-14.69h10.49v2.8Z"/>
    <path d="M154.64,24.57l4.6,14.69h-3.7l-.9-3.02h-4.75l-.92,3.02h-3.02l4.71-14.69h3.98ZM150.71,33.53h3.11l-1.54-5.15-1.57,5.15Z"/>
    <path d="M166.49,33.44v5.82h-3.46v-14.69h6.46c1.19,0,2.15.14,2.87.41.72.28,1.32.78,1.79,1.52.47.74.71,1.56.71,2.46,0,1.76-.85,3.03-2.55,3.8l2.71,6.49h-3.8l-2.26-5.82h-2.46ZM166.49,27.19v3.74h2.11c.69,0,1.19-.05,1.5-.15.31-.1.59-.31.83-.65.24-.33.37-.72.37-1.15s-.12-.77-.37-1.1c-.24-.32-.51-.52-.8-.6-.29-.08-.82-.11-1.61-.11h-2.03Z"/>
    <path d="M191.26,30.04l-3.6.23c-.05-2.07-.86-3.11-2.43-3.11-1.8,0-2.7,1.6-2.7,4.79,0,1.84.24,3.09.73,3.75s1.17.98,2.05.98c1.42,0,2.29-.93,2.61-2.78l3.33.21c-.21,1.76-.87,3.09-1.96,4.01-1.09.92-2.43,1.37-4.02,1.37-1.94,0-3.52-.67-4.74-2.01s-1.82-3.2-1.82-5.56c0-2.22.59-4.03,1.76-5.44,1.18-1.41,2.78-2.12,4.82-2.12,3.53,0,5.52,1.9,5.96,5.69Z"/>
    <path d="M206.78,24.57v14.69h-3.38v-6.06h-4.58v6.06h-3.38v-14.69h3.38v5.72h4.58v-5.72h3.38Z"/>
  </g>
  <g>
    <path class="st0" d="M243.92,20c-.22,0-.47.12-.65.24-3.46,3.41-7.05,6.72-10.39,10.26-1.1,1.17-2.19,2.42-2.95,3.85l2.18,1.96,2.1-1.73,10.7-12.86c.53-.76-.11-1.75-1-1.72ZM228.49,21.3l-2.54,2.35,1.69,1.61-.76.76,2.48,2.34c.5.49,1.49.4,2,.62.21.09.89.9,1,.9l2.09-2.22-.71-.68c.01-.8-.06-1.66-.56-2.32l-2.37-2.37s-.05-.02-.08,0c-.13.06-.55.63-.65.61l-1.59-1.6ZM242.05,39.63c.37.37,1,1.22,1.52,1.29,1.04.14,1.95-.98,1.49-1.96-1.23-1.48-2.64-2.84-3.97-4.23-1.06-1.11-2.11-2.24-3.15-3.36l-1.84,2.18c1.93,2.07,3.95,4.07,5.95,6.08ZM229.2,35.31c-1.29.12-2.03.91-2.3,2.14-.23,1.05.11,1.89-.68,2.79-.12.14-.61.49-.64.55-.02.05-.03.09-.02.14.04.15.5.23.65.24.94.08,2.18,0,3.02-.44,1.4-.72,2.23-2.08,2.19-3.67l-1.97-1.75c-.09-.03-.18,0-.27,0Z"/>
    <path d="M220.24,20.89h-1c-.65,0-1.62.54-2.05,1.03-1.83,2.08-.15,5.83-1.73,7.45-.45.46-1.11.74-1.74.89-.06.58-.01,1.15,0,1.74,1.16.35,2.14.73,2.39,2.05.38,2.01-.4,4.61,1.16,6.26.45.47,1.44.93,2.08.93h.88c.09-.61.03-1.2,0-1.81-.58-.03-1.07-.18-1.45-.64-.76-.94-.41-3.26-.48-4.46-.1-1.49-.77-2.76-2.23-3.26.68-.19,1.29-.71,1.66-1.3,1.01-1.65.35-3.66.68-5.48.16-.9.88-1.59,1.83-1.52.02-.63.08-1.24,0-1.87Z"/>
    <path d="M252.2,20.89c-.31-.04-.68.03-1,0v1.87c2.37.03,1.8,2.66,1.87,4.26.03.75.08,1.59.36,2.29.33.82,1.02,1.48,1.87,1.75-.92.3-1.63,1.08-1.95,1.98-.21.61-.26,1.31-.29,1.94-.07,1.67.57,4.35-1.87,4.44v1.81h.88c1.27,0,2.4-1.07,2.81-2.2.79-2.19-.69-5.61,1.87-6.7.19-.08.83-.24.9-.3.14-.11.03-1.5.05-1.77-1.02-.24-2.07-.81-2.36-1.89-.65-2.39.79-7.03-3.15-7.47Z"/>
  </g>
</svg>