<?xml version="1.0" encoding="UTF-8"?>
<svg id="Layer_1" xmlns="http://www.w3.org/2000/svg" version="1.1" viewBox="0 0 283.46 283.46">

  <path fill="currentColor"
        d="M81.21,129.4c15.8-3.26,30.95-10.41,44.16-19.53,16.95-11.69,31.82-27.04,35.63-48.1C169.22,16.36,114.59-4.33,85.36,27.71c-4.38,4.8-7.68,10.46-10.38,16.34-5.1-.05-10.18-.42-15.26.19-18.38,2.21-33.96,14.89-39.17,32.69-7.05,24.06,7.15,46.24,30.96,51.89l1.51-17.93c-26.78-9.42-18.84-43.85,6.8-48.73,1.71-.33,4.07-.68,5.79-.74.74-.03,3.54-.22,3.71.48.11.47-2.3,7.91-2.63,9.21-4.84,18.86-8.07,38.07-9.24,57.56l-.29,20.65c5.94-.44,11.87-.99,17.82-.3-.82-25.75,2.89-51.39,9.51-76.16-1.03-3.83-4.22-6.57-7.46-8.58-1.25-.77-2.88-1.17-3.84-2.25,18.56,3.12,36.61,8.72,54.15,15.37,4.1-4.28,7.45-9.62,9.08-15.35-14.17-5.79-28.85-10.17-43.63-14.12,7.33-16.59,30-24.64,44.38-11.72,17.37,15.6.13,41.68-13.66,53.13-11.65,9.68-26.28,17.1-40.69,21.66l-1.61,18.43ZM168.52,105.35c-6.06,20.32-7.05,42.48-2.89,63.3,2.66,13.3,7.92,25.62,17.28,35.57,36.29,38.6,90.02-3.86,69.69-49.79-1.86-4.2-4.46-7.95-6.88-11.83,15.8-20.29,15.52-49.11-4.45-66.5-17.25-15.02-42.2-12.3-57.32,4.16l14.74,10.22c20.72-17.78,45.9,3.53,39.68,27.87-.95,3.72-2.85,7.58-4.98,10.75-20.55-21.39-43.89-40.21-70.09-54.32-1.64,4.11-3.64,8.08-5.96,11.85-.52.85-2.26,2.89-2.49,3.45-.21.5.19.4.37.5,1.94,1.14,4.01,2.12,5.95,3.26,20.13,11.86,38.41,26.26,54.86,42.83,2.79,1.35,8.34-.7,10.98-2.06.54-.28,3.65-2.41,3.85-2.23-11.56,14.41-25.3,27.01-39.67,38.57-.91,1.11.72,4.24,1.31,5.57,1.23,2.82,3.06,5.97,4.98,8.38.35.44,1.57,2.17,2.01,2.09,11.79-9.28,23.13-19.23,33.29-30.28l.57-.27c8.76,11.7,8.05,29.32-3.24,39.17-15.26,13.31-32.01,2.82-40.58-11.97-9.02-15.57-10.04-39.82-7.63-57.31.47-3.4,1.2-6.78,1.99-10.11l-15.39-10.86ZM91.3,227.53c-.14,1.55,0,3.44,0,5.05,0,.17.64.8.15,1.04-2.97-6.64-5.06-13.88-6.96-20.95-2.95-10.99-5.2-22.18-7.03-33.41-5.76-1.17-12-1.77-17.66-.06,1.75,15.15,5.54,29.94,9.39,44.64-.45.61-5.75.09-6.82-.05-28.92-3.61-37.37-42.18-6.48-50.05,17.6-4.48,35.29,2.26,50.45,10.85,8.03,4.55,15.57,10.01,22.28,16.34,5.34-2.07,11.69-4.4,16.64-7.31.24-.14.5.09.38-.51-11.29-12.23-25.17-21.94-40.28-28.91-19.02-8.78-39.31-13.4-59.65-5.69-40.63,15.41-32.7,70.42,6.92,81.27,7.5,2.05,14.86,2.18,22.59,1.61,2.37,5.94,5.83,11.68,10.13,16.44,28.25,31.27,82.5,12.24,75.98-32.32-.12-.85-1.05-6.42-1.58-6.43l-16.06,7.7c5.33,27.26-27.37,38.18-44.82,19.61-1.54-1.64-5.13-6.41-5.84-8.42-.11-.31-.42-.31.05-.65,28.74-6.88,56.54-17.82,81.69-33.27.1-.62-2.79-4.09-3.36-4.96-2.16-3.3-4.05-6.74-5.72-10.31-21.81,13.72-46.05,23.25-70.91,29.97-1.89,2.33-3.2,5.79-3.48,8.77Z"/>
  <path fill="currentColor"
        d="M168.52,105.35l15.39,10.86c-.79,3.33-1.52,6.71-1.99,10.11-2.42,17.49-1.39,41.74,7.63,57.31s25.32,25.27,40.58,11.97c11.29-9.84,12-27.47,3.24-39.17l-.57.27c-10.16,11.05-21.5,20.99-33.29,30.28-.44.08-1.65-1.64-2.01-2.09-1.92-2.4-3.75-5.56-4.98-8.38-.58-1.33-2.22-4.46-1.31-5.57,14.37-11.56,28.1-24.16,39.67-38.57-.2-.18-3.31,1.95-3.85,2.23-2.63,1.36-8.19,3.41-10.98,2.06-16.45-16.57-34.73-30.96-54.86-42.83-1.94-1.14-4.01-2.12-5.95-3.26-.18-.11-.58,0-.37-.5.23-.55,1.97-2.6,2.49-3.45,2.32-3.77,4.32-7.74,5.96-11.85,26.19,14.12,49.53,32.93,70.09,54.32,2.13-3.17,4.03-7.03,4.98-10.75,6.21-24.33-18.96-45.65-39.68-27.87l-14.74-10.22c15.12-16.46,40.06-19.18,57.32-4.16,19.98,17.39,20.26,46.21,4.45,66.5,2.42,3.88,5.02,7.63,6.88,11.83,20.33,45.92-33.4,88.38-69.69,49.79-9.36-9.95-14.62-22.27-17.28-35.57-4.16-20.82-3.17-42.98,2.89-63.3Z"/>
  <path fill="currentColor"
        d="M81.21,129.4l1.61-18.43c14.42-4.56,29.04-11.98,40.69-21.66,13.79-11.45,31.03-37.53,13.66-53.13-14.38-12.92-37.05-4.86-44.38,11.72,14.78,3.96,29.46,8.34,43.63,14.12-1.62,5.73-4.98,11.07-9.08,15.35-17.55-6.65-35.59-12.26-54.15-15.37.96,1.08,2.59,1.48,3.84,2.25,3.24,2.01,6.43,4.74,7.46,8.58-6.62,24.78-10.33,50.42-9.51,76.16-5.95-.69-11.88-.15-17.82.3l.29-20.65c1.17-19.49,4.4-38.7,9.24-57.56.33-1.3,2.75-8.74,2.63-9.21-.17-.7-2.97-.51-3.71-.48-1.72.07-4.07.42-5.79.74-25.64,4.89-33.58,39.31-6.8,48.73l-1.51,17.93c-23.81-5.64-38.01-27.82-30.96-51.89,5.21-17.8,20.79-30.48,39.17-32.69,5.07-.61,10.16-.24,15.26-.19,2.7-5.88,6-11.54,10.38-16.34,29.23-32.04,83.86-11.35,75.65,34.06-3.81,21.06-18.68,36.41-35.63,48.1-13.22,9.12-28.36,16.27-44.16,19.53Z"/>
  <path fill="currentColor"
        d="M91.3,227.53c.28-2.98,1.59-6.45,3.48-8.77,24.86-6.72,49.1-16.26,70.91-29.97,1.67,3.56,3.56,7.01,5.72,10.31.56.86,3.45,4.34,3.36,4.96-25.14,15.46-52.95,26.39-81.69,33.27-.48.34-.16.34-.05.65.72,2,4.3,6.77,5.84,8.42,17.45,18.57,50.15,7.65,44.82-19.61l16.06-7.7c.53.01,1.46,5.58,1.58,6.43,6.52,44.56-47.73,63.59-75.98,32.32-4.3-4.76-7.76-10.5-10.13-16.44-7.73.57-15.09.45-22.59-1.61-39.62-10.85-47.55-65.86-6.92-81.27,20.34-7.72,40.63-3.09,59.65,5.69,15.11,6.97,28.99,16.68,40.28,28.91.12.59-.13.36-.38.51-4.94,2.92-11.3,5.24-16.64,7.31-6.71-6.32-14.25-11.79-22.28-16.34-15.15-8.59-32.85-15.33-50.45-10.85-30.89,7.87-22.44,46.44,6.48,50.05,1.06.13,6.37.65,6.82.05-3.85-14.7-7.64-29.49-9.39-44.64,5.66-1.71,11.9-1.11,17.66.06,1.83,11.23,4.08,22.42,7.03,33.41,1.9,7.08,3.98,14.32,6.96,20.95.49-.24-.15-.87-.15-1.04,0-1.6-.14-3.5,0-5.05Z"/>
</svg>