<?xml version="1.0" encoding="UTF-8"?>
<svg id="Layer_1" xmlns="http://www.w3.org/2000/svg" version="1.1" viewBox="0 0 4299.59 658.67">
  <!-- Generator: Adobe Illustrator 29.6.0, SVG Export Plug-In . SVG Version: 2.1.1 Build 207)  -->
  <defs>
    <style>
      .st0 {
        fill: #e6dbda;
      }

      .st1 {
        fill: #ef4a3b;
      }
    </style>
  </defs>
  <g>
    <path class="st0" d="M3534.85,477.04v18.27c-7.72-1.65-19.45-.22-22.99,7.93-.21.48-1.21,3.44-1.21,3.63v9.41h37.65v-10.48c0-1.09,1.33-6,1.77-7.37,5.82-18.39,25.86-24.37,43.41-21.38v18.27c-7.04-1.51-17.27-.48-21.75,5.95-.63.9-2.45,4.76-2.45,5.61v9.41h22.59v18.81h-22.59v81.17h-20.98v-81.17h-37.65v81.17h-20.98v-80.36l-.81-.81h-17.48v-18.81h18.29v-11.02c0-3.18,2.89-10.27,4.61-13.12,8.47-14.05,25.27-17.43,40.56-15.09h0v-.02Z"/>
    <path class="st0" d="M3874.74,476.5v139.76h-19.9v-12.36c-16.92,19.41-48.31,18.95-66.94,2.14-26.45-23.88-21.36-71.23,11.17-87.17,14.77-7.23,36.04-6.63,49.27,3.64,1.83,1.42,3.21,3.93,5.42,4.52v-50.52h20.98ZM3819.22,533.63c-35.37,4.02-34.97,62.5.94,65.42,45.18,3.68,44.24-70.55-.94-65.42Z"/>
    <path class="st0" d="M3224.02,282.99v92.72c0,24.64,33.88,35.6,51.63,20.43,4.28-3.65,10.21-13.16,10.21-18.82v-94.34h22.05l.03,91.14c.03,43.85-53.27,62.66-86.25,38.85-8.96-6.46-19.18-21.66-19.18-32.97v-97.02h21.51Z"/>
    <path class="st0" d="M3297.15,508.75l-17.95,7.5c-3.69-7.09-8.76-13.7-16.1-17.27-11.4-5.55-32.24-5.45-37.56,8.33-5.02,12.98,3.08,22.01,14.64,26.41,21.88,8.33,53.67,10.33,57.98,39.33,3.79,25.46-16.35,43.55-40.54,45.34-26.24,1.94-50.32-10.78-59.88-35.75l17.51-8.79c1.28-.12,3.2,5.21,4.04,6.55,9.34,14.93,27.55,23.24,44.81,17.05,17.28-6.2,17.24-27.16.4-34.28-12.42-5.26-27.33-7.17-39.51-13.18-35.2-17.39-27.41-65.65,10.84-72.71,25.18-4.65,52.25,6.62,61.33,31.47h-.01Z"/>
    <path class="st0" d="M4004.88,476.5v49.99c6.06-6.76,13.64-11.44,22.93-12.29,24.32-2.25,42.25,13.43,42.68,37.83v64.23h-20.97v-61.55c0-6.53-4.81-14.79-10.38-18.11-14.97-8.92-34.25,1.59-34.25,19.19v60.47h-20.44v-139.76h20.44-.01Z"/>
    <path class="st0" d="M3582.72,377.06c1.62,29.22,40.41,37.87,55.11,12.97l16.9,8.79c-5.4,12.03-17.92,20.49-30.69,23.03-41.75,8.33-72-27.15-60.95-67.37,14.14-51.49,91.34-46.54,94.94,8.31.29,4.35.44,10.47-1.37,14.27h-73.94ZM3635.96,360.39c-2.61-32.77-48.63-31.66-52.7,0h52.7Z"/>
    <path class="st0" d="M4280.23,572.18h-74.75c1.32,29.53,40.01,38.15,55.18,13.48l16.81,8.73c-11.96,24.52-46.44,30.51-68.92,17.46-40.95-23.77-29.17-94.53,20.3-97.75,34.73-2.26,56.15,24.67,51.38,58.08h0ZM4258.72,555.52c-2.77-32.39-48.51-31.29-52.7,0h52.7Z"/>
    <path class="st0" d="M3462.79,616.26h-20.44v-11.29c-14.16,17.02-50.33,19.35-62.61-.58-5.81-9.42-4.65-24.04,2.15-32.7,12.81-16.31,41.6-14.02,59.95-19.17,1.61-22.8-27.85-26.28-40.1-10.98-1.64,2.04-2.75,6.27-5.11,5.69-4.57-1.12-11.09-6.71-16.13-7.84,12.47-34.2,75.89-34.72,81.68,4.1,1.32,24.18.26,48.53.6,72.77h.01ZM3441.82,569.49c-10.12,2.78-33.06,2.55-40.34,10.09-5.78,6-4.87,15.67,2.32,20.11,14.38,8.89,38.02-5.79,38.02-22.41v-7.8h0Z"/>
    <path class="st0" d="M4118.25,318.63c71.75-4.05,73.37,103.92,4.16,104.69-68.08.75-72.04-100.85-4.16-104.69h0ZM4119.33,337.98c-41.68,2.79-35.71,73.1,7.77,65.28,36.31-6.53,31.23-67.89-7.77-65.28Z"/>
    <path class="st0" d="M3685.25,528.82c27.59,27.58,15.44,77.77-22.82,87.81-42,11.02-77.49-26.78-64.27-68,11.58-36.09,60.71-46.18,87.08-19.82h0ZM3643.91,533.63c-35.55,4.04-35.05,62.49.94,65.42,45.13,3.67,43.91-70.52-.94-65.42Z"/>
    <path class="st0" d="M3950.84,320.62l28.51,73.11,29.03-73.11h20.98l.57,1.09-46.26,115.58c-9.98,19.8-27.17,29.04-49.23,22.01v-18.27c6.21,1.57,12.82,2.38,19.06.51,8.51-2.55,12.06-13.23,15.12-20.67l-39.33-99.16.57-1.09h20.98Z"/>
    <path class="st0" d="M3411.7,421.13h-20.44v-60.47c0-16.49-15.54-26.75-30.79-21.1-7.45,2.75-13.84,11.5-13.84,19.49v62.09h-20.17l-.81-.81v-98.9l.81-.81h18.82l.81.81v11.02l5.66-6.43c18.16-14.04,47.4-7.78,56.81,13.6.93,2.11,3.13,8.29,3.13,10.31v71.22h0v-.02Z"/>
    <path class="st0" d="M3811.28,344.26l-16.67,7.54c-3.79-11.82-18.39-18.75-30.11-14.77-6.26,2.12-10.39,8.81-7.12,15.14,3.83,7.4,25.97,10.75,34.18,14.21,26.18,11.04,26.5,43.44.09,53.69-22.29,8.65-53.47-.78-60.47-25.22l16.07-7.03c5.46,13.74,24.21,23.64,37.83,15.47,4.72-2.84,7.48-8.9,4.61-14.07-4.58-8.24-30.68-11.19-40.43-17.11-20.21-12.27-17.22-40.84,4.1-49.98,21.32-9.15,49.89-.8,57.91,22.12h.01Z"/>
    <path class="st0" d="M3951.68,546.88c-4-11.34-17.57-17.99-29.1-14.76-7.45,2.1-12.12,10.05-7.21,16.91,4.1,5.72,25.79,9.61,33.4,12.84,30.32,12.88,23.82,50.02-7.32,55.75-21.76,4.01-45.63-4.89-53.2-26.85l15.8-7.85c4.08,8.85,12.26,16.48,22.11,18.21,7.26,1.27,18.38-.26,21.03-8.42,4.91-15.1-21.84-17.55-31.46-20.93-10.55-3.69-21.5-11.49-22.7-23.54-4.32-43.29,63.41-44.53,75.22-9.12-1.79,1.38-15.67,8.39-16.56,7.74h0v.02Z"/>
    <path class="st0" d="M3484.04,320.62l26.61,69.88,26.09-69.88h22.32l-38.99,99.98c-.39.61-.99.49-1.59.57-1.85.23-16.8.21-17.53-.28l-39.24-100.27h22.33Z"/>
    <path class="st0" d="M4241.51,299.65c-7.06-.65-16.72-.6-21.51,5.65-.73.96-2.69,4.93-2.69,5.91v9.41h22.59v19.35h-22.59v80.36l-.81.81h-19.36l-.81-.81v-80.36h-18.29v-19.35h18.29v-10.48c0-1.57,1.63-6.72,2.28-8.47,5.6-14.91,21.4-21.84,36.71-20.82,1.77.12,4.93.43,6.19,1.34v17.47h0Z"/>
    <path class="st0" d="M3897.33,298.04v22.58h22.59v19.35h-22.59v51.33c0,.34,1.23,3.77,1.51,4.4,3.78,8.54,14.19,8.43,22.15,7.15v17.47c-.34.57-.75.67-1.36.79-17.73,3.58-36.76-2.1-41.82-21.07-.4-1.49-1.46-5.91-1.46-7.14v-52.95h-17.75v-18.54c1.98-1.55,4.92-.5,7.56-1.04,4.48-.93,10.19-6.67,10.19-11.32v-11.02h20.98Z"/>
    <path class="st0" d="M3342.33,493.16v23.12h22.59v18.81h-22.59v51.33c0,.81,1.24,4.33,1.71,5.28,3.98,8.03,14.31,7.72,21.95,6.81v17.74c-17.39,3.52-37.06-.43-42.76-19.34-.62-2.05-1.88-6.96-1.88-8.88v-52.95h-17.75v-18.81c5.92.46,12.29-.94,15.49-6.28.57-.95,2.25-4.43,2.25-5.27v-11.56h20.99Z"/>
    <path class="st0" d="M3768.26,515.2v18.01l-.81.81h-12.37c-10.01,0-19.09,12.89-19.09,22.31v59.93h-20.98v-99.17l.81-.81h19.63v11.82c3.36-4.51,6.83-8.5,12.23-10.62,1.38-.54,6.82-2.28,7.94-2.28h12.64Z"/>
    <path class="st0" d="M3726.31,319.54v18.81h-10.48c-10.61,0-21.24,10.65-21.24,21.23v60.74l-.81.81h-19.36l-.81-.81v-98.9l.81-.81h19.09v12.36c3.06-3.34,4.95-6.56,8.98-9.03,2.94-1.8,10-4.4,13.34-4.4h10.49,0Z"/>
    <path class="st0" d="M4180.74,515.2v18.81h-13.17c-9.98,0-19.09,12.92-19.09,22.31v59.93h-20.44v-99.98h19.9v11.82c3.36-4.51,6.83-8.5,12.23-10.62,1.38-.54,6.82-2.28,7.94-2.28h12.64-.01Z"/>
    <polygon class="st0" points="3847.31 320.62 3847.31 421.13 3827.14 421.13 3826.34 420.33 3826.34 321.42 3827.14 320.62 3847.31 320.62"/>
    <polygon class="st0" points="3429.99 320.62 3450.16 320.62 3450.96 321.42 3450.96 420.33 3450.16 421.13 3430.79 421.13 3429.99 420.33 3429.99 320.62"/>
    <rect class="st0" x="4088.78" y="516.28" width="20.44" height="99.98"/>
    <path class="st0" d="M4097.25,477.18c18.15-2.21,20.37,24.55,4.12,26.69-18.87,2.48-21.36-24.59-4.12-26.69Z"/>
    <path class="st0" d="M3436.84,282.04c20.44-3.82,22.51,25.28,4.64,26.71-17.09,1.36-19.43-23.94-4.64-26.71Z"/>
    <path class="st0" d="M3833.73,282.04c11.98-2.01,21.33,9.51,14.77,20.13-7.64,12.36-26.6,6.09-24.78-9.18.56-4.72,5.28-10.15,10.01-10.95Z"/>
  </g>
  <g>
    <path class="st1" d="M0,473.96V153.35C0,55.77,45.85,0,134.26,0s134.26,55.76,134.26,153.34v52.27h-85.14v-58.37c0-43.56-18.01-60.12-46.67-60.12s-46.66,16.55-46.66,60.12v333.69c0,43.56,18.01,59.25,46.66,59.25s46.67-15.68,46.67-59.25v-119.36h-45.03v-87.12h130.17v199.52c0,97.58-45.85,153.34-134.26,153.34S0,571.56,0,473.98v-.02Z"/>
    <path class="st1" d="M833.41,499.23h-103.97l-15.56,119.36h-83.51L723.7,8.72h121.98l93.33,609.87h-90.06l-15.55-119.36h.01ZM821.95,416.46l-40.93-307.55-40.12,307.55h81.05Z"/>
    <path class="st1" d="M1309.05,8.72h126.9l59.76,442.59,59.76-442.59h126.9v609.87h-85.14V156.83l-67.13,461.76h-75.32l-67.13-461.76v461.76h-78.59V8.72h-.01Z"/>
    <path class="st1" d="M2076.96,8.72h245.6v87.12h-155.55v161.18h123.62v87.12h-123.62v187.32h155.55v87.12h-245.6V8.72Z"/>
    <path class="st1" d="M2684.41,473.96v-34.85h85.14v41.82c0,43.56,18.01,59.25,46.67,59.25s47.48-15.68,47.48-60.99c0-50.53-19.65-81.9-78.59-136.79-75.32-70.57-100.7-121.1-100.7-190.8,0-95.84,46.67-151.6,134.26-151.6s130.99,55.76,130.99,153.34v25.27h-85.14v-31.36c0-43.56-16.37-60.12-45.03-60.12s-45.85,16.55-45.85,58.37c0,44.43,20.47,75.8,79.41,130.69,75.32,70.57,99.88,120.23,99.88,196.03,0,99.32-47.48,155.08-135.9,155.08s-132.63-55.76-132.63-153.34h.01Z"/>
  </g>
</svg>