<?xml version="1.0" encoding="UTF-8"?>
<svg id="Layer_1" xmlns="http://www.w3.org/2000/svg" version="1.1" viewBox="0 0 283.46 283.46">
  <!-- Generator: Adobe Illustrator 29.6.0, SVG Export Plug-In . SVG Version: 2.1.1 Build 207)  -->
  <defs>
    <style>
      .st0 {
        fill: none;
        stroke: #c2bfd2;
        stroke-miterlimit: 10;
        stroke-width: 2px;
      }
    </style>
  </defs>
  <path class="st0" d="M77.02,61.03c18.56,3.12,36.61,8.72,54.15,15.37,4.1-4.28,7.45-9.62,9.08-15.35-14.17-5.79-28.85-10.17-43.63-14.12,7.33-16.59,30-24.64,44.38-11.72,17.37,15.6.13,41.68-13.66,53.13-11.65,9.68-26.28,17.1-40.69,21.66l-1.61,18.43v-.03c15.8-3.26,30.95-10.41,44.16-19.53,16.95-11.69,31.82-27.04,35.63-48.1C173.05,15.36,118.42-5.33,89.19,26.71c-4.38,4.8-7.68,10.46-10.38,16.34-5.1-.05-10.18-.42-15.26.19-18.38,2.21-33.96,14.89-39.17,32.69-7.05,24.06,7.15,46.24,30.96,51.89l1.51-17.93c-26.78-9.42-18.84-43.85,6.8-48.73,1.71-.33,4.07-.68,5.79-.74.74-.03,3.54-.22,3.71.48.11.47-2.3,7.91-2.63,9.21-4.84,18.86-8.07,38.07-9.24,57.56l-.29,20.65c5.94-.44,11.87-.99,17.82-.3-.82-25.75,2.89-51.39,9.51-76.16M234.69,131.38c-11.56,14.41-25.3,27.01-39.67,38.57-.91,1.11.72,4.24,1.31,5.57,1.23,2.82,3.06,5.97,4.98,8.38.35.44,1.57,2.17,2.01,2.09,11.79-9.28,23.7-19.5,33.86-30.55h0c8.76,11.7,8.05,29.32-3.24,39.17-15.26,13.31-32.01,2.82-40.58-11.97-9.02-15.57-10.04-39.82-7.63-57.31.47-3.4,1.2-6.78,1.99-10.11l-15.37-10.87h0c-6.06,20.32-7.05,42.48-2.89,63.3,2.66,13.3,7.92,25.62,17.28,35.57,36.29,38.6,90.02-3.86,69.69-49.79-1.86-4.2-4.46-7.95-6.88-11.83,15.8-20.29,15.52-49.11-4.45-66.5-17.25-15.02-42.2-12.3-57.32,4.16l14.74,10.22c20.72-17.78,45.9,3.53,39.68,27.87-.95,3.72-2.85,7.58-4.98,10.75-20.55-21.39-43.89-40.21-70.09-54.32-1.64,4.11-3.64,8.08-5.96,11.85-.52.85-2.26,2.89-2.49,3.45-.21.5.19.4.37.5,1.94,1.14,4.01,2.12,5.95,3.26,20.13,11.86,38.41,26.26,54.86,42.83M95.28,232.62c-2.97-6.64-5.06-13.88-6.96-20.95-2.95-10.99-5.2-22.18-7.03-33.41-5.76-1.17-12-1.77-17.66-.06,1.75,15.15,5.54,29.94,9.39,44.64-.45.61-5.75.09-6.82-.05-28.92-3.61-37.37-42.18-6.48-50.05,17.6-4.48,35.29,2.26,50.45,10.85,8.03,4.55,15.57,10.01,22.28,16.34,5.34-2.07,11.69-4.4,16.64-7.31.24-.14.5.09.38-.51-11.29-12.23-25.17-21.94-40.28-28.91-19.02-8.78-39.31-13.4-59.65-5.69-40.63,15.41-32.7,70.42,6.92,81.27,7.5,2.05,14.86,2.18,22.59,1.61,2.37,5.94,5.83,11.68,10.13,16.44,28.25,31.27,82.5,12.24,75.98-32.32-.12-.85-1.05-6.42-1.58-6.43l-16.06,7.7c5.33,27.26-27.37,38.18-44.82,19.61-1.54-1.64-5.13-6.41-5.84-8.42-.11-.31-.13-.5.05-.65,28.74-6.88,56.54-17.82,81.69-33.27.1-.62-2.79-4.09-3.36-4.96-2.16-3.3-4.05-6.74-5.72-10.31-21.81,13.72-46.05,23.25-70.91,29.97"/>
</svg>