<?xml version="1.0" encoding="UTF-8"?>
<svg id="Layer_1" xmlns="http://www.w3.org/2000/svg" version="1.1" viewBox="0 0 2527.94 862.56">
  <!-- Generator: Adobe Illustrator 29.6.0, SVG Export Plug-In . SVG Version: 2.1.1 Build 207)  -->
  <defs>
    <style>
      .st0 {
        fill: #ccc;
      }
    </style>
  </defs>
  <g>
    <path class="st0" d="M1047.19,473.32v32.61c-13.77-2.94-34.7-.39-41.02,14.15-.37.86-2.16,6.13-2.16,6.47v16.79h67.18v-18.7c0-1.95,2.37-10.7,3.15-13.16,10.38-32.82,46.15-43.49,77.46-38.16v32.61c-12.57-2.69-30.81-.86-38.81,10.61-1.12,1.6-4.38,8.5-4.38,10.01v16.79h40.31v33.57h-40.31v144.84h-37.43v-144.84h-67.18v144.84h-37.43v-143.4l-1.44-1.44h-31.19v-33.57h32.63v-19.66c0-5.68,5.16-18.33,8.23-23.42,15.11-25.07,45.09-31.1,72.38-26.93h.01Z"/>
    <path class="st0" d="M1653.7,472.36v249.39h-35.51v-22.06c-30.19,34.63-86.21,33.82-119.45,3.81-47.2-42.61-38.11-127.11,19.94-155.55,26.36-12.91,64.31-11.83,87.92,6.5,3.26,2.53,5.72,7.01,9.68,8.07v-90.16h37.43-.01ZM1554.64,574.3c-63.12,7.17-62.41,111.53,1.67,116.74,80.62,6.56,78.95-125.9-1.67-116.74Z"/>
    <path class="st0" d="M492.51,127.05v165.46c0,43.97,60.46,63.53,92.14,36.46,7.63-6.52,18.22-23.49,18.22-33.58V127.05h39.35l.05,162.63c.05,78.24-95.05,111.82-153.91,69.33-15.98-11.53-34.23-38.66-34.23-58.83V127.05h38.39,0Z"/>
    <path class="st0" d="M623.02,529.9l-32.04,13.39c-6.58-12.65-15.63-24.44-28.73-30.82-20.34-9.9-57.53-9.73-67.03,14.87-8.95,23.17,5.5,39.28,26.12,47.13,39.04,14.86,95.77,18.43,103.47,70.19,6.77,45.44-29.18,77.72-72.34,80.91-46.83,3.46-89.79-19.23-106.86-63.79l31.24-15.69c2.29-.21,5.71,9.3,7.21,11.69,16.66,26.65,49.17,41.47,79.96,30.42,30.84-11.06,30.76-48.46.71-61.18-22.16-9.38-48.77-12.79-70.51-23.52-62.82-31.03-48.92-117.15,19.35-129.74,44.93-8.29,93.24,11.81,109.45,56.15h0Z"/>
    <path class="st0" d="M1885.94,472.36v89.2c10.81-12.07,24.34-20.41,40.91-21.94,43.4-4.01,75.39,23.96,76.16,67.51v114.61h-37.42v-109.83c0-11.65-8.58-26.39-18.53-32.32-26.71-15.91-61.12,2.83-61.12,34.24v107.91h-36.47v-249.39h36.47Z"/>
    <path class="st0" d="M1132.6,294.91c2.89,52.15,72.11,67.57,98.34,23.14l30.15,15.68c-9.63,21.46-31.98,36.56-54.76,41.1-74.5,14.87-128.48-48.44-108.76-120.22,25.24-91.88,163-83.05,169.42,14.82.51,7.76.79,18.68-2.44,25.46h-131.95v.02ZM1227.61,265.17c-4.66-58.48-86.78-56.49-94.05,0h94.05Z"/>
    <path class="st0" d="M2377.29,643.09h-133.39c2.36,52.7,71.39,68.07,98.46,24.06l29.99,15.58c-21.35,43.75-82.87,54.45-122.99,31.16-73.07-42.42-52.05-168.68,36.23-174.43,61.98-4.04,100.2,44.03,91.69,103.64h.01ZM2338.91,613.36c-4.94-57.8-86.57-55.84-94.05,0h94.05Z"/>
    <path class="st0" d="M918.6,721.75h-36.47v-20.14c-25.26,30.38-89.81,34.53-111.72-1.04-10.36-16.81-8.3-42.89,3.84-58.35,22.86-29.1,74.24-25.01,106.98-34.21,2.88-40.68-49.69-46.89-71.56-19.6-2.92,3.64-4.91,11.19-9.12,10.16-8.16-2-19.79-11.98-28.78-13.99,22.25-61.02,135.42-61.95,145.76,7.32,2.36,43.15.46,86.6,1.07,129.86h0ZM881.17,638.3c-18.05,4.96-59,4.55-71.98,18.01-10.32,10.71-8.69,27.96,4.14,35.88,25.66,15.86,67.84-10.33,67.84-39.99v-13.91h0Z"/>
    <path class="st0" d="M2088.24,190.64c128.03-7.23,130.93,185.45,7.42,186.81-121.48,1.34-128.56-179.97-7.42-186.81h0ZM2090.16,225.18c-74.38,4.98-63.73,130.45,13.87,116.49,64.79-11.66,55.73-121.15-13.87-116.49Z"/>
    <path class="st0" d="M1315.57,565.73c49.24,49.22,27.55,138.78-40.72,156.7-74.95,19.67-138.28-47.79-114.68-121.34,20.67-64.41,108.33-82.41,155.4-35.36ZM1241.79,574.3c-63.43,7.21-62.54,111.52,1.67,116.74,80.54,6.55,78.35-125.84-1.67-116.74Z"/>
    <path class="st0" d="M1789.5,194.19l50.87,130.46,51.81-130.46h37.43l1.02,1.95-82.55,206.24c-17.81,35.34-48.49,51.82-87.85,39.28v-32.61c11.08,2.8,22.87,4.25,34.02.91,15.18-4.55,21.52-23.61,26.98-36.88l-70.18-176.94,1.02-1.95h37.43,0Z"/>
    <path class="st0" d="M827.43,373.56h-36.47v-107.91c0-29.43-27.73-47.73-54.95-37.66-13.29,4.91-24.7,20.52-24.7,34.78v110.79h-35.99l-1.44-1.44v-176.49l1.44-1.44h33.59l1.44,1.44v19.66l10.1-11.48c32.41-25.05,84.59-13.89,101.38,24.27,1.66,3.76,5.59,14.79,5.59,18.39v127.09h.01Z"/>
    <path class="st0" d="M1540.47,236.38l-29.74,13.45c-6.77-21.09-32.82-33.45-53.73-26.35-11.17,3.79-18.54,15.72-12.7,27.02,6.83,13.21,46.34,19.18,60.99,25.36,46.71,19.7,47.28,77.52.16,95.8-39.77,15.44-95.42-1.39-107.91-45.01l28.67-12.54c9.75,24.52,43.2,42.19,67.51,27.61,8.43-5.06,13.34-15.89,8.22-25.1-8.18-14.71-54.74-19.97-72.14-30.53-36.07-21.9-30.73-72.87,7.31-89.19,38.05-16.32,89.03-1.42,103.34,39.48h.02Z"/>
    <path class="st0" d="M1791.01,597.95c-7.13-20.24-31.36-32.11-51.92-26.33-13.3,3.74-21.63,17.93-12.87,30.17,7.31,10.21,46.02,17.15,59.6,22.92,54.1,22.98,42.51,89.26-13.07,99.49-38.83,7.15-81.43-8.73-94.93-47.91l28.2-14c7.28,15.8,21.88,29.41,39.45,32.49,12.95,2.27,32.79-.47,37.52-15.02,8.76-26.95-38.97-31.32-56.14-37.34-18.82-6.59-38.36-20.5-40.5-42.01-7.71-77.25,113.15-79.46,134.22-16.28-3.2,2.47-27.97,14.97-29.55,13.82h0Z"/>
    <path class="st0" d="M956.51,194.19l47.49,124.69,46.56-124.69h39.83l-69.57,178.41c-.69,1.08-1.77.88-2.83,1.01-3.31.41-29.98.38-31.28-.5l-70.02-178.93h39.83,0Z"/>
    <path class="st0" d="M2308.2,156.78c-12.59-1.16-29.83-1.07-38.38,10.08-1.31,1.71-4.8,8.8-4.8,10.55v16.79h40.31v34.53h-40.31v143.4l-1.44,1.44h-34.55l-1.44-1.44v-143.4h-32.63v-34.53h32.63v-18.7c0-2.81,2.9-12,4.07-15.12,10-26.61,38.18-38.97,65.5-37.15,3.16.21,8.79.77,11.05,2.39v31.17h-.01Z"/>
    <path class="st0" d="M1694.01,153.91v40.29h40.31v34.53h-40.31v91.6c0,.6,2.19,6.72,2.69,7.86,6.74,15.24,25.33,15.05,39.53,12.76v31.17c-.61,1.02-1.34,1.19-2.43,1.41-31.64,6.38-65.59-3.75-74.62-37.59-.71-2.65-2.61-10.54-2.61-12.74v-94.48h-31.67v-33.09c3.54-2.77,8.78-.89,13.49-1.86,8-1.66,18.18-11.91,18.18-20.2v-19.66h37.44Z"/>
    <path class="st0" d="M703.63,502.09v41.25h40.31v33.57h-40.31v91.6c0,1.44,2.22,7.72,3.05,9.42,7.1,14.33,25.53,13.78,39.17,12.16v31.65c-31.04,6.29-66.14-.77-76.3-34.52-1.1-3.66-3.35-12.42-3.35-15.84v-94.48h-31.67v-33.57c10.57.82,21.94-1.68,27.65-11.21,1.02-1.7,4.02-7.91,4.02-9.41v-20.62h37.43,0Z"/>
    <path class="st0" d="M1463.69,541.42v32.13l-1.44,1.44h-22.07c-17.87,0-34.07,23-34.07,39.81v106.95h-37.43v-176.97l1.44-1.44h35.03v21.1c5.99-8.04,12.18-15.17,21.82-18.95,2.47-.97,12.17-4.07,14.16-4.07h22.56Z"/>
    <path class="st0" d="M1388.84,192.27v33.57h-18.71c-18.93,0-37.91,19-37.91,37.89v108.39l-1.44,1.44h-34.55l-1.44-1.44v-176.49l1.44-1.44h34.07v22.06c5.46-5.96,8.84-11.7,16.02-16.12,5.24-3.22,17.85-7.86,23.8-7.86h18.72Z"/>
    <path class="st0" d="M2199.76,541.42v33.57h-23.51c-17.81,0-34.07,23.06-34.07,39.81v106.95h-36.47v-178.41h35.51v21.1c5.99-8.04,12.18-15.17,21.82-18.95,2.47-.97,12.17-4.07,14.16-4.07h22.56Z"/>
    <polygon class="st0" points="1604.76 194.19 1604.76 373.56 1568.77 373.56 1567.33 372.12 1567.33 195.63 1568.77 194.19 1604.76 194.19"/>
    <polygon class="st0" points="860.06 194.19 896.05 194.19 897.49 195.63 897.49 372.12 896.05 373.56 861.5 373.56 860.06 372.12 860.06 194.19"/>
    <rect class="st0" x="2035.65" y="543.34" width="36.47" height="178.41"/>
    <path class="st0" d="M2050.77,473.57c32.38-3.94,36.35,43.81,7.35,47.63-33.67,4.43-38.12-43.88-7.35-47.63Z"/>
    <path class="st0" d="M872.28,125.36c36.48-6.82,40.17,45.11,8.28,47.66-30.5,2.43-34.67-42.72-8.28-47.66Z"/>
    <path class="st0" d="M1580.52,125.36c21.38-3.59,38.07,16.97,26.35,35.93-13.64,22.06-47.46,10.86-44.22-16.39,1-8.43,9.43-18.12,17.87-19.54Z"/>
  </g>
  <rect class="st0" x="173.46" y="99.23" width="40.66" height="664.09"/>
</svg>