<?xml version="1.0" encoding="UTF-8"?>
<svg id="Layer_1" xmlns="http://www.w3.org/2000/svg" version="1.1" viewBox="0 0 1816.72 407.24">
  <!-- Generator: Adobe Illustrator 29.6.0, SVG Export Plug-In . SVG Version: 2.1.1 Build 207)  -->
  <path d="M435.17,340.83c-1.6-7.08-6.48-13.71-11.65-20.73-4.82-6.54-9.79-13.29-11.25-19.68-.43-2.61-.16-5.46.86-8.95,17.54-40.66,16.8-84.55-2.03-120.55-1.71-4.69-9.4-15.72-15.99-23.8-16.75-20.55-23.5-20.15-26.03-20.01-2.21.13-7.47,1.32-8.63,9.58l-.06.44.02.44c.63,17.5,8.57,30.17,16.25,42.43,7.75,12.36,15.75,25.15,16.75,43.75,1.23,18.81-1.93,35.33-9.37,49.11l-.08.15c-.5,1.01-1,2-1.5,2.98-3.61,7.11-7.35,14.45-6.79,23.4-.25,4.41,2.04,9.42,4.45,14.72,1.3,2.84,3.37,7.39,3.58,9.49-2.82.51-9.96-.83-13.57-1.5-2.54-.47-4.93-.92-7.02-1.17-12.95-2.16-25.6.77-35.15,3.55-43.39,12.31-86.92-1.1-110.92-34.16-.95-1.45-2.04-2.91-3.2-4.45-3.34-4.45-7.1-9.46-6.33-13.12,6.34-5.47,25.38-4.89,42.26-4.37,16.12.49,31.35.96,41.49-2.78,31.46-8.45,31.51-44.89,31.54-62.33.16-8.14.84-17.57,1.55-27.56,1.65-23.05,3.51-49.17.09-71.73-4.15-27.37-15.29-44.21-34.08-51.5l-.85-.25c-7.54-1.69-14.44-1.42-22.42-1.1l-.73.03c-41.29.35-76.83-1.27-105.39-2.57-62.96-2.86-100.97-4.59-122.03,17.3-22.37,23.25-22.79,72.86-15.74,156.3,1.04,11.39,3.55,25.64,13.76,35.01,8.16,8.53,21.71,10.01,32.61,11.2,5.07.55,13.56,1.48,14.61,3.22.05.08.15.82-.5,2.49l-.05.13c-1.81,5.01-4.99,10.69-8.36,16.71-8.04,14.36-17.14,30.64-8.45,42.64l.27.38.34.32c3.9,3.69,12.69,8.15,27.76-3.46,8.09-6.06,18.67-15.32,28.02-23.49,3.24-2.83,6.34-5.54,9.07-7.89,9.01-7.45,13.23-15.04,12.92-23.21v-.1c-.24-3.97-1-9.59-4.9-12.62-3.64-2.83-7.91-2.01-11.03-1.41-.96.18-2,.38-2.86.44-.07-.97,0-2.32.04-3.25.07-1.42.14-2.89.01-4.34-.3-6.32-3.1-14.44-14.65-17.54-7.05-1.9-15.91-1.59-24.49-1.29-2.37.08-4.82.17-7.2.2h-.55c-5.98.14-12.73.29-16.35-3.1-8.05-12.77-8.27-29.38-8.52-48.58-.05-3.88-.1-7.89-.22-12.01.25-16.32,1.15-32.25,1.96-46.3.47-8.3.92-16.15,1.2-23.42l.03-.73c.3-7.62.86-11.42,4.68-13.3l.2-.1c19.69-10.84,85-7.45,137.48-4.73,30.19,1.57,58.71,3.05,76.15,1.84,2.63-.05,4.72.12,6.29,1.03,1.87,1.14,3.39,3.5,3.88,6.02.23,1.17.41,3.39-.9,5.18-3.06,3.79-8.23,4.84-14.21,6.05-.96.19-1.92.39-2.87.6-48.14,9.04-81.69,37.95-94.5,81.41-14.78,50.17,1.51,110.4,39.6,146.47,22.02,20.85,48.74,31.5,77.81,31.5,14.75,0,30.1-2.74,45.75-8.28,5.47-1.61,11.74-3.35,17.1-3.74,8.94-.51,18.3,1.88,28.21,4.41,14.43,3.68,29.35,7.48,44.21,2.35l.35-.13c7.04-3.04,10.37-10.22,8.3-17.9ZM204.41,236.59c-2.42.02-3.92.02-4.71-.34-.14-.27-.45-1.12-.6-3.31-1.91-47.08,37.03-92.06,83.37-96.31,3.07-.2,4.22.14,4.52.26.09.24.26.86.3,2.32-.07,6.01.19,13.52.49,22.21.89,25.41,2.1,60.18-5.43,73.12-1.27,1.91-2.28,2.06-7.02,2.03-.92,0-1.89,0-2.9.02h-21.12c-7.01,0-13.96,0-20.82,0-7.57,0-15.03,0-22.33,0-1.38-.03-2.62-.02-3.75-.01Z"/>
  <g>
    <polygon points="668.27 169.92 667.89 25.82 631.16 25.82 589.18 102.51 545.96 25.82 509.23 25.82 509.23 169.92 549.93 169.92 549.93 106.47 578.71 156.95 598.4 156.95 627.24 104.19 627.56 169.92 668.27 169.92"/>
    <path d="M759.34,173.21c-10.73,0-20.67-1.85-29.82-5.56-9.15-3.71-17.07-8.95-23.76-15.75-6.69-6.79-11.9-14.79-15.62-23.98-3.72-9.19-5.58-19.21-5.58-30.05s1.86-21.03,5.58-30.16c3.72-9.12,8.93-17.09,15.62-23.88,6.69-6.79,14.61-12.04,23.76-15.75,9.15-3.71,19.09-5.56,29.82-5.56s20.83,1.85,29.92,5.56c9.09,3.71,16.98,8.95,23.67,15.75,6.69,6.79,11.9,14.75,15.62,23.88,3.72,9.13,5.58,19.18,5.58,30.16s-1.86,20.86-5.58,30.05c-3.72,9.2-8.93,17.19-15.62,23.98-6.69,6.79-14.58,12.04-23.67,15.75-9.09,3.71-19.06,5.56-29.92,5.56ZM759.34,133.89c4.17,0,8.05-.82,11.64-2.47,3.6-1.65,6.75-4.01,9.47-7.1,2.71-3.09,4.83-6.86,6.34-11.32,1.51-4.46,2.27-9.5,2.27-15.13s-.76-10.67-2.27-15.13c-1.51-4.46-3.63-8.23-6.34-11.32-2.72-3.09-5.87-5.46-9.47-7.1-3.6-1.65-7.48-2.47-11.64-2.47s-8.05.82-11.64,2.47c-3.6,1.65-6.75,4.01-9.47,7.1-2.72,3.09-4.83,6.86-6.34,11.32-1.51,4.46-2.27,9.5-2.27,15.13s.76,10.67,2.27,15.13c1.51,4.46,3.63,8.23,6.34,11.32,2.71,3.09,5.87,5.46,9.47,7.1,3.6,1.65,7.48,2.47,11.64,2.47Z"/>
    <path d="M918.95,173.21c-10.6,0-20.42-1.82-29.44-5.46-9.03-3.63-16.85-8.82-23.48-15.54-6.63-6.72-11.77-14.68-15.43-23.88-3.66-9.19-5.49-19.35-5.49-30.47s1.83-21.27,5.49-30.47c3.66-9.19,8.8-17.15,15.43-23.88,6.63-6.72,14.45-11.91,23.48-15.54,9.02-3.63,18.84-5.46,29.44-5.46,13,0,24.52,2.47,34.55,7.41s18.33,12.08,24.9,21.41l-28.21,27.38c-3.91-5.35-8.24-9.5-12.97-12.45-4.73-2.95-10.07-4.43-16-4.43-4.67,0-8.9.82-12.69,2.47-3.79,1.65-7.04,4.05-9.75,7.21-2.72,3.16-4.83,6.97-6.34,11.43-1.51,4.46-2.27,9.44-2.27,14.92s.76,10.47,2.27,14.92c1.51,4.46,3.63,8.27,6.34,11.43,2.71,3.16,5.96,5.56,9.75,7.21,3.79,1.65,8.01,2.47,12.69,2.47,5.93,0,11.27-1.47,16-4.43,4.73-2.95,9.06-7.1,12.97-12.45l28.21,27.38c-6.56,9.2-14.86,16.3-24.9,21.31s-21.55,7.51-34.55,7.51Z"/>
    <polygon points="1077.04 169.92 1128.73 169.92 1073.05 89.32 1126.08 25.82 1077.42 25.82 1033.88 78.01 1033.88 25.82 989.95 25.82 989.95 169.92 1033.88 169.92 1033.88 134.24 1043.82 122.22 1077.04 169.92"/>
  </g>
  <g>
    <path d="M508.19,376.95v-144.1h44.68v144.1h-44.68Z"/>
    <polygon points="661.55 232.84 661.55 298.37 611.18 232.84 574.45 232.84 574.45 376.95 618 376.95 618 311.42 668.36 376.95 705.1 376.95 705.1 232.84 661.55 232.84"/>
    <path d="M755.45,376.95v-106.43h-38.81v-37.67h122.31v37.67h-38.81v106.43h-44.68Z"/>
    <polygon points="894.43 340.3 894.43 321.36 950.47 321.36 950.47 286.37 894.43 286.37 894.43 269.49 958.23 269.49 958.23 232.84 850.5 232.84 850.5 376.95 960.69 376.95 960.69 340.3 894.43 340.3"/>
    <path d="M1057.25,376.95h47.71l-27.82-44.32c7.43-4.13,13.29-9.7,17.59-16.72,4.92-8.03,7.38-17.6,7.38-28.72,0-16.74-5.3-29.98-15.9-39.73-10.6-9.74-26.07-14.62-46.39-14.62h-61.91v144.1h44.68v-36.23h12.17l22.48,36.23ZM1052.62,274.84c2.96,3.02,4.45,7.14,4.45,12.35s-1.49,9.33-4.45,12.35c-2.97,3.02-7.54,4.53-13.73,4.53h-16.28v-33.76h16.28c6.18,0,10.76,1.51,13.73,4.53Z"/>
    <polygon points="1216.67 232.84 1184.22 316.94 1152.68 232.84 1104.59 232.84 1160.63 376.95 1204.56 376.95 1260.6 232.84 1216.67 232.84"/>
    <path d="M1264.95,376.95v-144.1h44.68v144.1h-44.68Z"/>
    <polygon points="1375.15 340.3 1375.15 321.36 1431.19 321.36 1431.19 286.37 1375.15 286.37 1375.15 269.49 1438.95 269.49 1438.95 232.84 1331.22 232.84 1331.22 376.95 1441.41 376.95 1441.41 340.3 1375.15 340.3"/>
    <polygon points="1629.99 232.84 1605.58 315.83 1582.47 232.84 1541.38 232.84 1516.92 314.71 1493.86 232.84 1447.85 232.84 1490.26 376.95 1538.16 376.95 1560.71 299.89 1582.09 376.95 1629.99 376.95 1672.4 232.84 1629.99 232.84"/>
    <path d="M1731.66,380.24c-11.11,0-21.84-1.37-32.19-4.12-10.35-2.74-18.87-6.31-25.56-10.71l14.39-35.41c6.31,3.98,13.35,7.17,21.11,9.57,7.76,2.4,15.3,3.6,22.63,3.6,4.29,0,7.67-.31,10.13-.93,2.46-.62,4.26-1.51,5.4-2.68,1.14-1.17,1.7-2.57,1.7-4.22,0-2.61-1.33-4.66-3.98-6.18-2.65-1.51-6.15-2.78-10.51-3.81s-9.12-2.13-14.29-3.29c-5.18-1.17-10.38-2.71-15.62-4.63-5.24-1.92-10.04-4.46-14.39-7.62-4.35-3.16-7.86-7.31-10.51-12.45-2.65-5.15-3.98-11.56-3.98-19.25,0-8.92,2.3-17.05,6.91-24.39,4.61-7.34,11.48-13.21,20.64-17.6,9.15-4.39,20.54-6.59,34.17-6.59,8.96,0,17.8,1.03,26.51,3.09,8.71,2.06,16.54,5.22,23.48,9.47l-13.44,35.2c-6.56-3.57-12.91-6.24-19.03-8.03-6.12-1.78-12.09-2.68-17.89-2.68-4.29,0-7.7.41-10.22,1.24-2.53.82-4.33,1.92-5.4,3.29-1.07,1.37-1.61,2.88-1.61,4.53,0,2.47,1.33,4.43,3.98,5.87,2.65,1.44,6.15,2.64,10.51,3.6,4.35.96,9.15,1.99,14.39,3.09,5.24,1.1,10.44,2.61,15.62,4.53,5.17,1.92,9.94,4.46,14.29,7.62,4.35,3.16,7.86,7.28,10.51,12.35,2.65,5.08,3.98,11.39,3.98,18.94,0,8.78-2.3,16.85-6.91,24.19-4.61,7.34-11.45,13.25-20.54,17.7-9.09,4.46-20.51,6.69-34.27,6.69Z"/>
  </g>
</svg>